<svg width="77" height="77" viewBox="0 0 77 77" fill="none" xmlns="http://www.w3.org/2000/svg">
<g clip-path="url(#clip0_119_9356)">
<circle cx="54" cy="31.5" r="22.5" fill="#FF5391"/>
<g clip-path="url(#clip1_119_9356)">
<path d="M52.1988 29.793H51.3014C51.0523 29.793 50.8505 29.9949 50.8505 30.2439V31.8834C50.8505 32.1324 51.0523 32.3343 51.3014 32.3343H52.1988C52.4478 32.3343 52.6497 32.1324 52.6497 31.8834V30.2439C52.6497 29.9949 52.4478 29.793 52.1988 29.793Z" fill="black"/>
<path d="M51.5209 24.8146V30.2008H51.9799V24.8146H51.5209Z" fill="black"/>
<path d="M51.4331 23.0513C43.6726 26.7583 35.9262 30.4936 28.199 34.2691L25.2505 32.151V26.3681C25.2505 26.219 25.1913 26.076 25.0858 25.9706C24.9804 25.8651 24.8374 25.8059 24.6883 25.8059H23.6378C23.4887 25.8059 23.3457 25.8651 23.2402 25.9706C23.1348 26.076 23.0756 26.219 23.0756 26.3681V45.9283H21.16L21.1471 28.5889H12.7584C8.28175 28.5889 4.30143 31.4374 2.8572 35.6747C2.13314 37.9306 1.78541 40.2904 1.82794 42.6593V45.9283H1.41677C0.910526 45.9283 0.500244 46.3386 0.500244 46.8448V50.4544C0.500244 50.9607 0.910526 51.3712 1.41677 51.3712H1.82794H4.58322V49.8527C4.58133 49.7966 4.58057 49.7403 4.58057 49.6843C4.58057 49.6277 4.58132 49.5714 4.58322 49.5149V49.4759H4.58485C4.69647 46.8149 6.88618 44.7153 9.5495 44.7153C12.2127 44.7154 14.4025 46.815 14.5141 49.4759H14.5154V49.5155C14.5173 49.5718 14.5182 49.6279 14.5182 49.6843C14.5182 49.7407 14.5173 49.7974 14.5154 49.8539V51.3712H16.9901H21.1642H44.3043V49.8527C44.3024 49.7966 44.3014 49.7403 44.3014 49.6843C44.3014 49.6277 44.3023 49.5714 44.3043 49.5149V49.4759H44.3057C44.4173 46.8149 46.6072 44.7153 49.2705 44.7153C51.9338 44.7154 54.1234 46.815 54.235 49.4759H54.2362V49.5155C54.2382 49.5718 54.2395 49.6279 54.2395 49.6843C54.2395 49.7407 54.2382 49.7974 54.2362 49.8539V51.3712L76.4992 48.9268V46.4491C76.4992 46.3807 76.4858 46.313 76.4596 46.2498C76.4334 46.1866 76.395 46.1292 76.3467 46.0808C76.2983 46.0325 76.2409 45.9941 76.1777 45.9679C76.1145 45.9417 76.0468 45.9283 75.9784 45.9283H74.0299L68.1948 42.0638H29.0028V38.6038L32.0751 37.098L34.4141 33.777L52.4439 25.1138C52.5058 25.084 52.5612 25.0424 52.6069 24.9911C52.6526 24.9399 52.6877 24.8801 52.7101 24.8152C52.7326 24.7504 52.742 24.6817 52.7378 24.6132C52.7337 24.5447 52.7159 24.4776 52.6857 24.416L52.1369 23.2961C52.0094 23.0361 51.6943 22.9265 51.4331 23.0513Z" fill="black"/>
<path d="M9.54351 53.7067C11.7647 53.7067 13.5653 51.9061 13.5653 49.6849C13.5653 47.4638 11.7647 45.6631 9.54351 45.6631C7.32234 45.6631 5.52173 47.4638 5.52173 49.6849C5.52173 51.9061 7.32234 53.7067 9.54351 53.7067Z" fill="black"/>
<path d="M49.2651 53.7056C51.4856 53.7056 53.2857 51.9055 53.2857 49.685C53.2857 47.4644 51.4856 45.6644 49.2651 45.6644C47.0446 45.6644 45.2445 47.4644 45.2445 49.685C45.2445 51.9055 47.0446 53.7056 49.2651 53.7056Z" fill="black"/>
</g>
</g>
<defs>
<clipPath id="clip0_119_9356">
<rect width="76" height="76.3602" fill="white" transform="translate(0.5)"/>
</clipPath>
<clipPath id="clip1_119_9356">
<rect width="76" height="30.7067" fill="white" transform="translate(0.5 23)"/>
</clipPath>
</defs>
</svg>
