<svg width="77" height="77" viewBox="0 0 77 77" fill="none" xmlns="http://www.w3.org/2000/svg">
<g clip-path="url(#clip0_119_9346)">
<circle cx="39" cy="42" r="22.5" fill="#F8464A"/>
<g clip-path="url(#clip1_119_9346)">
<path d="M74.9167 9.5H2.08333C1.66341 9.5 1.26068 9.66682 0.963748 9.96375C0.666815 10.2607 0.5 10.6634 0.5 11.0833L0.5 17.4167C0.5 17.8366 0.666815 18.2393 0.963748 18.5363C1.26068 18.8332 1.66341 19 2.08333 19H3.66667V74.4167C3.66667 74.8366 3.83348 75.2393 4.13041 75.5363C4.42735 75.8332 4.83007 76 5.25 76H11.5833C12.0033 76 12.406 75.8332 12.7029 75.5363C12.9999 75.2393 13.1667 74.8366 13.1667 74.4167V19H33.75V22.1667H22.6667C21.4069 22.1667 20.1987 22.6671 19.3079 23.5579C18.4171 24.4487 17.9167 25.6569 17.9167 26.9167C17.9167 28.1764 18.4171 29.3846 19.3079 30.2754C20.1987 31.1662 21.4069 31.6667 22.6667 31.6667H54.3333C55.5931 31.6667 56.8013 31.1662 57.6921 30.2754C58.5829 29.3846 59.0833 28.1764 59.0833 26.9167C59.0833 25.6569 58.5829 24.4487 57.6921 23.5579C56.8013 22.6671 55.5931 22.1667 54.3333 22.1667H43.25V19H63.8333V74.4167C63.8333 74.8366 64.0001 75.2393 64.2971 75.5363C64.594 75.8332 64.9967 76 65.4167 76H71.75C72.1699 76 72.5727 75.8332 72.8696 75.5363C73.1665 75.2393 73.3333 74.8366 73.3333 74.4167V19H74.9167C75.3366 19 75.7393 18.8332 76.0363 18.5363C76.3332 18.2393 76.5 17.8366 76.5 17.4167V11.0833C76.5 10.6634 76.3332 10.2607 76.0363 9.96375C75.7393 9.66682 75.3366 9.5 74.9167 9.5ZM10 72.8333H6.83333V19H10V72.8333ZM54.3333 28.5H22.6667C22.2467 28.5 21.844 28.3332 21.5471 28.0363C21.2501 27.7393 21.0833 27.3366 21.0833 26.9167C21.0833 26.4967 21.2501 26.094 21.5471 25.7971C21.844 25.5001 22.2467 25.3333 22.6667 25.3333H54.3333C54.7533 25.3333 55.156 25.5001 55.4529 25.7971C55.7499 26.094 55.9167 26.4967 55.9167 26.9167C55.9167 27.3366 55.7499 27.7393 55.4529 28.0363C55.156 28.3332 54.7533 28.5 54.3333 28.5ZM40.0833 22.1667H36.9167V19H40.0833V22.1667ZM70.1667 72.8333H67V19H70.1667V72.8333ZM73.3333 15.8333H3.66667V12.6667H73.3333V15.8333Z" fill="black"/>
<path d="M24.25 38V34.8333C24.25 34.4134 24.0832 34.0107 23.7863 33.7137C23.4894 33.4168 23.0866 33.25 22.6667 33.25C22.2468 33.25 21.8441 33.4168 21.5471 33.7137C21.2502 34.0107 21.0834 34.4134 21.0834 34.8333V38C21.0834 38.4199 21.2502 38.8227 21.5471 39.1196C21.8441 39.4165 22.2468 39.5833 22.6667 39.5833C23.0866 39.5833 23.4894 39.4165 23.7863 39.1196C24.0832 38.8227 24.25 38.4199 24.25 38ZM30.5834 41.1667V38C30.5834 37.5801 30.4166 37.1773 30.1196 36.8804C29.8227 36.5835 29.42 36.4167 29 36.4167C28.5801 36.4167 28.1774 36.5835 27.8805 36.8804C27.5835 37.1773 27.4167 37.5801 27.4167 38V41.1667C27.4167 41.5866 27.5835 41.9893 27.8805 42.2863C28.1774 42.5832 28.5801 42.75 29 42.75C29.42 42.75 29.8227 42.5832 30.1196 42.2863C30.4166 41.9893 30.5834 41.5866 30.5834 41.1667ZM36.9167 38V34.8333C36.9167 34.4134 36.7499 34.0107 36.453 33.7137C36.156 33.4168 35.7533 33.25 35.3334 33.25C34.9134 33.25 34.5107 33.4168 34.2138 33.7137C33.9169 34.0107 33.75 34.4134 33.75 34.8333V38C33.75 38.4199 33.9169 38.8227 34.2138 39.1196C34.5107 39.4165 34.9134 39.5833 35.3334 39.5833C35.7533 39.5833 36.156 39.4165 36.453 39.1196C36.7499 38.8227 36.9167 38.4199 36.9167 38ZM43.25 41.1667V38C43.25 37.5801 43.0832 37.1773 42.7863 36.8804C42.4894 36.5835 42.0866 36.4167 41.6667 36.4167C41.2468 36.4167 40.8441 36.5835 40.5471 36.8804C40.2502 37.1773 40.0834 37.5801 40.0834 38V41.1667C40.0834 41.5866 40.2502 41.9893 40.5471 42.2863C40.8441 42.5832 41.2468 42.75 41.6667 42.75C42.0866 42.75 42.4894 42.5832 42.7863 42.2863C43.0832 41.9893 43.25 41.5866 43.25 41.1667ZM49.5834 38V34.8333C49.5834 34.4134 49.4166 34.0107 49.1196 33.7137C48.8227 33.4168 48.42 33.25 48 33.25C47.5801 33.25 47.1774 33.4168 46.8805 33.7137C46.5835 34.0107 46.4167 34.4134 46.4167 34.8333V38C46.4167 38.4199 46.5835 38.8227 46.8805 39.1196C47.1774 39.4165 47.5801 39.5833 48 39.5833C48.42 39.5833 48.8227 39.4165 49.1196 39.1196C49.4166 38.8227 49.5834 38.4199 49.5834 38ZM55.9167 39.5833V36.4167C55.9167 35.9967 55.7499 35.594 55.453 35.2971C55.156 35.0001 54.7533 34.8333 54.3334 34.8333C53.9134 34.8333 53.5107 35.0001 53.2138 35.2971C52.9169 35.594 52.75 35.9967 52.75 36.4167V39.5833C52.75 40.0033 52.9169 40.406 53.2138 40.7029C53.5107 40.9999 53.9134 41.1667 54.3334 41.1667C54.7533 41.1667 55.156 40.9999 55.453 40.7029C55.7499 40.406 55.9167 40.0033 55.9167 39.5833ZM59.0834 52.25C53.795 52.25 54.1117 52.25 53.7 52.3925C50.9767 45.1092 51.04 44.3333 49.5834 44.3333H27.4167C27.0932 44.3323 26.7771 44.4304 26.511 44.6144C26.2449 44.7984 26.0416 45.0594 25.9284 45.3625C22.7775 53.8333 23.6167 52.25 22.6667 52.25H17.9167C17.4968 52.25 17.0941 52.4168 16.7971 52.7137C16.5002 53.0107 16.3334 53.4134 16.3334 53.8333V58.5833C16.3334 59.0033 16.5002 59.406 16.7971 59.7029C17.0941 59.9999 17.4968 60.1667 17.9167 60.1667H19.5V68.0833C19.5 68.5033 19.6669 68.906 19.9638 69.2029C20.2607 69.4999 20.6634 69.6667 21.0834 69.6667H22.6667V72.0417C22.6667 73.0915 23.0837 74.0983 23.8261 74.8406C24.5684 75.583 25.5752 76 26.625 76C27.6749 76 28.6817 75.583 29.424 74.8406C30.1663 74.0983 30.5834 73.0915 30.5834 72.0417V69.6667H46.4167V72.0417C46.4167 73.0915 46.8337 74.0983 47.5761 74.8406C48.3184 75.583 49.3252 76 50.375 76C51.4249 76 52.4317 75.583 53.174 74.8406C53.9163 74.0983 54.3334 73.0915 54.3334 72.0417V69.6667H55.9167C56.3366 69.6667 56.7394 69.4999 57.0363 69.2029C57.3332 68.906 57.5 68.5033 57.5 68.0833V60.1667H59.0834C59.5033 60.1667 59.906 59.9999 60.203 59.7029C60.4999 59.406 60.6667 59.0033 60.6667 58.5833V53.8333C60.6667 53.4134 60.4999 53.0107 60.203 52.7137C59.906 52.4168 59.5033 52.25 59.0834 52.25ZM28.5092 47.5H48.4909L52.0534 57H24.9467L28.5092 47.5ZM19.5 55.4167H21.0834V57H19.5V55.4167ZM27.4167 72.0417C27.4167 72.2516 27.3333 72.453 27.1848 72.6015C27.0364 72.7499 26.835 72.8333 26.625 72.8333C26.4151 72.8333 26.2137 72.7499 26.0652 72.6015C25.9168 72.453 25.8334 72.2516 25.8334 72.0417V69.6667H27.4167V72.0417ZM51.1667 72.0417C51.1667 72.2516 51.0833 72.453 50.9348 72.6015C50.7864 72.7499 50.585 72.8333 50.375 72.8333C50.1651 72.8333 49.9637 72.7499 49.8152 72.6015C49.6668 72.453 49.5834 72.2516 49.5834 72.0417V69.6667H51.1667V72.0417ZM22.6667 66.5V64.9167H27.4167C27.8366 64.9167 28.2394 64.7499 28.5363 64.4529C28.8332 64.156 29 63.7533 29 63.3333C29 62.9134 28.8332 62.5107 28.5363 62.2137C28.2394 61.9168 27.8366 61.75 27.4167 61.75H22.6667V60.1667H54.3334V61.75H49.5834C49.1634 61.75 48.7607 61.9168 48.4638 62.2137C48.1669 62.5107 48 62.9134 48 63.3333C48 63.7533 48.1669 64.156 48.4638 64.4529C48.7607 64.7499 49.1634 64.9167 49.5834 64.9167H54.3334V66.5H22.6667ZM57.5 57H55.9167V55.4167H57.5V57Z" fill="black"/>
</g>
</g>
<defs>
<clipPath id="clip0_119_9346">
<rect width="76" height="76.3602" fill="white" transform="translate(0.5)"/>
</clipPath>
<clipPath id="clip1_119_9346">
<rect width="76" height="76" fill="white" transform="translate(0.5)"/>
</clipPath>
</defs>
</svg>
