<svg width="87" height="77" viewBox="0 0 87 77" fill="none" xmlns="http://www.w3.org/2000/svg">
<circle cx="23" cy="37" r="22.5" fill="#53ACFF"/>
<g clip-path="url(#clip0_151_10258)">
<path d="M70.1125 28.8859C69.6766 28.0749 69.027 27.3986 68.2342 26.9302C67.4414 26.4619 66.5356 26.2194 65.6149 26.2289L54.2891 26.2734V39.7812H75.9461L70.1125 28.8859ZM30.9547 45.1547C33.9346 45.1547 36.8475 44.2711 39.3252 42.6155C41.8028 40.96 43.7339 38.607 44.8743 35.8539C46.0146 33.1009 46.313 30.0716 45.7316 27.149C45.1503 24.2264 43.7153 21.5418 41.6083 19.4347C39.5012 17.3276 36.8166 15.8927 33.894 15.3114C30.9714 14.73 27.9421 15.0284 25.189 16.1687C22.436 17.3091 20.083 19.2402 18.4275 21.7178C16.7719 24.1955 15.8883 27.1084 15.8883 30.0883C15.8937 34.0825 17.4828 37.9116 20.3071 40.7359C23.1314 43.5602 26.9605 45.1493 30.9547 45.1547ZM24.1266 21.5234C25.4751 20.1727 27.1939 19.2523 29.0656 18.8786C30.9374 18.5049 32.8779 18.6947 34.6417 19.4241C36.4055 20.1534 37.9133 21.3895 38.9745 22.976C40.0357 24.5625 40.6024 26.4281 40.6031 28.3367C40.5977 30.9053 39.5726 33.3666 37.7531 35.1797L31.786 41.1469C31.5588 41.3659 31.2555 41.4883 30.9399 41.4883C30.6243 41.4883 30.321 41.3659 30.0938 41.1469L24.1266 35.1797C23.4719 34.5217 22.9168 33.7716 22.4789 32.9531C22.4789 32.9492 22.4774 32.9454 22.4746 32.9426C22.4718 32.9398 22.468 32.9383 22.4641 32.9383C21.4706 31.1114 21.0956 29.0119 21.3953 26.9541C21.695 24.8963 22.6533 22.991 24.1266 21.5234ZM26.1156 51.3C25.1586 51.3 24.223 51.5838 23.4272 52.1155C22.6314 52.6472 22.0112 53.403 21.6449 54.2872C21.2787 55.1715 21.1829 56.1444 21.3696 57.0831C21.5563 58.0218 22.0172 58.884 22.6939 59.5608C23.3707 60.2375 24.2329 60.6984 25.1716 60.8851C26.1103 61.0719 27.0833 60.976 27.9675 60.6098C28.8517 60.2435 29.6075 59.6233 30.1392 58.8275C30.6709 58.0317 30.9547 57.0961 30.9547 56.1391C30.9545 54.8557 30.4446 53.625 29.5371 52.7176C28.6297 51.8101 27.399 51.3002 26.1156 51.3Z" fill="black"/>
<path d="M30.9394 31.468C32.8086 31.468 34.3238 29.9528 34.3238 28.0836C34.3238 26.2145 32.8086 24.6992 30.9394 24.6992C29.0703 24.6992 27.5551 26.2145 27.5551 28.0836C27.5551 29.9528 29.0703 31.468 30.9394 31.468Z" fill="black"/>
<path d="M72.6508 51.3C71.6937 51.3 70.7581 51.5838 69.9623 52.1155C69.1666 52.6473 68.5463 53.403 68.1801 54.2872C67.8138 55.1715 67.718 56.1444 67.9047 57.0831C68.0914 58.0218 68.5523 58.8841 69.229 59.5608C69.9058 60.2376 70.768 60.6984 71.7067 60.8852C72.6454 61.0719 73.6184 60.976 74.5026 60.6098C75.3868 60.2435 76.1426 59.6233 76.6743 58.8275C77.206 58.0317 77.4898 57.0962 77.4898 56.1391C77.4896 54.8557 76.9797 53.6251 76.0723 52.7176C75.1648 51.8102 73.9341 51.3002 72.6508 51.3ZM30.9547 47.4703C28.6189 47.4709 26.3069 47.0006 24.1569 46.0875C22.0069 45.1745 20.063 43.8374 18.4414 42.1563H16.2891V54.7734H19.0352C19.6586 51.5078 22.5977 48.8953 26.1156 48.8953C29.6336 48.8953 32.5875 51.5078 33.2109 54.7734H51.9141V42.1563H43.468C41.8463 43.8374 39.9024 45.1745 37.7525 46.0875C35.6025 47.0006 33.2905 47.4709 30.9547 47.4703ZM25.8039 33.4875L30.925 38.6086L36.0461 33.4875C36.7279 32.811 37.2691 32.0063 37.6385 31.1198C38.0079 30.2332 38.1982 29.2823 38.1984 28.3219C38.2034 27.37 38.0182 26.4266 37.6537 25.5472C37.2892 24.6678 36.7527 23.8701 36.0758 23.2008C34.8415 21.9634 33.2029 21.2118 31.4599 21.0836C29.7168 20.9554 27.9859 21.4591 26.5838 22.5025C25.1817 23.546 24.2023 25.0594 23.8246 26.7659C23.447 28.4723 23.6964 30.2577 24.5273 31.7953C24.8785 32.4118 25.3075 32.9806 25.8039 33.4875ZM30.9398 22.3399C32.0775 22.3413 33.1891 22.6801 34.1342 23.3134C35.0793 23.9466 35.8154 24.8459 36.2494 25.8975C36.6834 26.9491 36.7958 28.1058 36.5724 29.2212C36.349 30.3367 35.7999 31.3609 34.9944 32.1643C34.1889 32.9677 33.1633 33.5142 32.0473 33.7347C30.9312 33.9552 29.7749 33.8398 28.7244 33.4031C27.6739 32.9664 26.7765 32.228 26.1457 31.2812C25.5149 30.3345 25.179 29.222 25.1805 28.0844C25.1858 26.5599 25.7948 25.0997 26.8742 24.0231C27.9535 22.9465 29.4154 22.3413 30.9398 22.3399Z" fill="black"/>
<path d="M79.1672 42.1562H54.2891V54.7734H65.5703C66.1937 51.5078 69.1328 48.8953 72.6508 48.8953C76.1688 48.8953 79.1078 51.5078 79.7312 54.7734H81.1562V44.1602C81.1492 43.6334 80.9379 43.13 80.5668 42.7561C80.1957 42.3823 79.6939 42.1672 79.1672 42.1562Z" fill="black"/>
</g>
<defs>
<clipPath id="clip0_151_10258">
<rect width="76" height="76.3602" fill="white" transform="translate(10.5)"/>
</clipPath>
</defs>
</svg>
