<svg width="290" height="67" viewBox="0 0 290 67" fill="none" xmlns="http://www.w3.org/2000/svg">
<path d="M119.637 1.03972L1 6.5L119.762 6.03059C122.186 6.02101 123.175 2.91101 121.203 1.50214C120.748 1.17684 120.196 1.01399 119.637 1.03972Z" fill="#0C1139"/>
<path d="M289 6L171.769 1.0326C171.268 1.01136 170.772 1.14226 170.347 1.40806C168.23 2.73119 169.168 6 171.664 6H289Z" fill="#0C1139"/>
<path d="M118.49 59.5H2L118.312 65.9343C119.079 65.9767 119.835 65.7436 120.445 65.2771C122.891 63.4068 121.568 59.5 118.49 59.5Z" fill="#0C1139"/>
<path d="M288.5 60L171.929 65.9526C171.326 65.9833 170.731 65.8148 170.234 65.473C168.016 63.9487 169.087 60.4757 171.778 60.465L288.5 60Z" fill="#0C1139"/>
<path d="M119.637 1.03972L1 6.5L119.762 6.03059C122.186 6.02101 123.175 2.91101 121.203 1.50214C120.748 1.17684 120.196 1.01399 119.637 1.03972Z" stroke="#0C1237"/>
<path d="M289 6L171.769 1.0326C171.268 1.01136 170.772 1.14226 170.347 1.40806C168.23 2.73119 169.168 6 171.664 6H289Z" stroke="#0C1237"/>
<path d="M118.49 59.5H2L118.312 65.9343C119.079 65.9767 119.835 65.7436 120.445 65.2771C122.891 63.4068 121.568 59.5 118.49 59.5Z" stroke="#0C1237"/>
<path d="M288.5 60L171.929 65.9526C171.326 65.9833 170.731 65.8148 170.234 65.473C168.016 63.9487 169.087 60.4757 171.778 60.465L288.5 60Z" stroke="#0C1237"/>
<path d="M13.9222 41.504C11.9062 41.504 10.1662 41.18 8.70223 40.532C7.26223 39.884 6.12223 38.924 5.28223 37.652L9.89023 33.26C10.4182 34.1 11.0302 34.736 11.7262 35.168C12.4222 35.6 13.1902 35.816 14.0302 35.816C15.0142 35.816 15.8062 35.54 16.4062 34.988C17.0302 34.412 17.4502 33.56 17.6662 32.432L19.8622 21.308H11.1502L12.2662 15.8H28.0342L24.7582 32.036C24.3022 34.364 23.6062 36.224 22.6702 37.616C21.7342 38.984 20.5342 39.98 19.0702 40.604C17.6062 41.204 15.8902 41.504 13.9222 41.504ZM31.454 41L47.618 15.8H54.638L60.722 41H53.63L49.13 19.184H51.938L38.978 41H31.454ZM38.51 36.104L41.39 30.848H53.702L54.494 36.104H38.51ZM74.7687 41L76.8927 30.308L77.6847 34.664L70.1607 15.8H77.3247L82.7247 29.48L78.3327 29.516L89.3487 15.8H96.5847L81.6087 34.664L84.0207 30.308L81.8967 41H74.7687ZM95.9516 41L112.116 15.8H119.136L125.22 41H118.128L113.628 19.184H116.436L103.476 41H95.9516ZM103.008 36.104L105.888 30.848H118.2L118.992 36.104H103.008Z" fill="#0C1637"/>
<path d="M149.129 41L165.293 15.8H172.313L178.397 41H171.305L166.805 19.184H169.613L156.653 41H149.129ZM156.185 36.104L159.065 30.848H171.377L172.169 36.104H156.185ZM199.402 41.504C196.882 41.504 194.77 41.024 193.066 40.064C191.386 39.08 190.198 37.712 189.502 35.96C188.806 34.184 188.686 32.12 189.142 29.768L191.95 15.8H199.078L196.306 29.66C196.114 30.668 196.054 31.544 196.126 32.288C196.198 33.032 196.402 33.656 196.738 34.16C197.098 34.664 197.566 35.036 198.142 35.276C198.742 35.492 199.45 35.6 200.266 35.6C201.25 35.6 202.102 35.408 202.822 35.024C203.566 34.616 204.178 33.98 204.658 33.116C205.162 32.228 205.546 31.076 205.81 29.66L208.582 15.8H215.602L212.758 30.092C212.014 33.836 210.526 36.68 208.294 38.624C206.062 40.544 203.098 41.504 199.402 41.504ZM227.568 41L231.492 21.452H223.752L224.904 15.8H247.476L246.324 21.452H238.62L234.696 41H227.568ZM265.548 41.504C262.956 41.504 260.724 41.036 258.852 40.1C256.98 39.14 255.54 37.832 254.532 36.176C253.524 34.52 253.02 32.6 253.02 30.416C253.02 28.208 253.404 26.192 254.172 24.368C254.94 22.52 256.02 20.924 257.412 19.58C258.804 18.212 260.46 17.156 262.38 16.412C264.324 15.668 266.448 15.296 268.752 15.296C271.344 15.296 273.576 15.776 275.448 16.736C277.32 17.672 278.76 18.968 279.768 20.624C280.776 22.28 281.28 24.2 281.28 26.384C281.28 28.592 280.896 30.62 280.128 32.468C279.36 34.292 278.28 35.888 276.888 37.256C275.496 38.6 273.828 39.644 271.884 40.388C269.964 41.132 267.852 41.504 265.548 41.504ZM266.16 35.6C267.408 35.6 268.512 35.372 269.472 34.916C270.456 34.46 271.284 33.824 271.956 33.008C272.652 32.168 273.18 31.22 273.54 30.164C273.9 29.108 274.08 27.992 274.08 26.816C274.08 25.688 273.84 24.704 273.36 23.864C272.904 23.024 272.232 22.376 271.344 21.92C270.48 21.44 269.412 21.2 268.14 21.2C266.916 21.2 265.812 21.428 264.828 21.884C263.844 22.34 263.004 22.988 262.308 23.828C261.636 24.644 261.12 25.58 260.76 26.636C260.4 27.692 260.22 28.808 260.22 29.984C260.22 31.088 260.448 32.072 260.904 32.936C261.384 33.776 262.056 34.436 262.92 34.916C263.808 35.372 264.888 35.6 266.16 35.6Z" fill="#929493"/>
<path d="M47.583 54.08C47.0497 54.08 46.553 53.99 46.093 53.81C45.6397 53.63 45.2464 53.38 44.913 53.06C44.5797 52.7333 44.3197 52.3533 44.133 51.92C43.9464 51.4867 43.853 51.0133 43.853 50.5C43.853 49.9867 43.9464 49.5133 44.133 49.08C44.3197 48.6467 44.5797 48.27 44.913 47.95C45.2464 47.6233 45.6397 47.37 46.093 47.19C46.5464 47.01 47.043 46.92 47.583 46.92C48.1164 46.92 48.6064 47.01 49.053 47.19C49.5064 47.3633 49.8997 47.6133 50.233 47.94C50.573 48.26 50.833 48.6367 51.013 49.07C51.1997 49.5033 51.293 49.98 51.293 50.5C51.293 51.02 51.1997 51.4967 51.013 51.93C50.833 52.3633 50.573 52.7433 50.233 53.07C49.8997 53.39 49.5064 53.64 49.053 53.82C48.6064 53.9933 48.1164 54.08 47.583 54.08ZM47.583 53.19C47.9697 53.19 48.3264 53.1233 48.653 52.99C48.9864 52.8567 49.273 52.67 49.513 52.43C49.7597 52.1833 49.9497 51.8967 50.083 51.57C50.223 51.2433 50.293 50.8867 50.293 50.5C50.293 50.1133 50.223 49.7567 50.083 49.43C49.9497 49.1033 49.7597 48.82 49.513 48.58C49.273 48.3333 48.9864 48.1433 48.653 48.01C48.3264 47.8767 47.9697 47.81 47.583 47.81C47.1897 47.81 46.8264 47.8767 46.493 48.01C46.1664 48.1433 45.8797 48.3333 45.633 48.58C45.3864 48.82 45.193 49.1033 45.053 49.43C44.9197 49.7567 44.853 50.1133 44.853 50.5C44.853 50.8867 44.9197 51.2433 45.053 51.57C45.193 51.8967 45.3864 52.1833 45.633 52.43C45.8797 52.67 46.1664 52.8567 46.493 52.99C46.8264 53.1233 47.1897 53.19 47.583 53.19ZM59.6215 54V47H60.4415L65.0715 52.75H64.6415V47H65.6415V54H64.8215L60.1915 48.25H60.6215V54H59.6215ZM75.4467 50.02H79.0467V50.87H75.4467V50.02ZM75.5367 53.13H79.6167V54H74.5367V47H79.4767V47.87H75.5367V53.13ZM99.5615 54.08C99.0282 54.08 98.5182 54 98.0315 53.84C97.5448 53.6733 97.1615 53.46 96.8815 53.2L97.2515 52.42C97.5182 52.6533 97.8582 52.8467 98.2715 53C98.6848 53.1533 99.1148 53.23 99.5615 53.23C99.9682 53.23 100.298 53.1833 100.551 53.09C100.805 52.9967 100.991 52.87 101.111 52.71C101.231 52.5433 101.291 52.3567 101.291 52.15C101.291 51.91 101.211 51.7167 101.051 51.57C100.898 51.4233 100.695 51.3067 100.441 51.22C100.195 51.1267 99.9215 51.0467 99.6215 50.98C99.3215 50.9133 99.0182 50.8367 98.7115 50.75C98.4115 50.6567 98.1348 50.54 97.8815 50.4C97.6348 50.26 97.4348 50.0733 97.2815 49.84C97.1282 49.6 97.0515 49.2933 97.0515 48.92C97.0515 48.56 97.1448 48.23 97.3315 47.93C97.5248 47.6233 97.8182 47.38 98.2115 47.2C98.6115 47.0133 99.1182 46.92 99.7315 46.92C100.138 46.92 100.541 46.9733 100.941 47.08C101.341 47.1867 101.688 47.34 101.981 47.54L101.651 48.34C101.351 48.14 101.035 47.9967 100.701 47.91C100.368 47.8167 100.045 47.77 99.7315 47.77C99.3382 47.77 99.0148 47.82 98.7615 47.92C98.5082 48.02 98.3215 48.1533 98.2015 48.32C98.0882 48.4867 98.0315 48.6733 98.0315 48.88C98.0315 49.1267 98.1082 49.3233 98.2615 49.47C98.4215 49.6167 98.6248 49.7333 98.8715 49.82C99.1248 49.9067 99.4015 49.9867 99.7015 50.06C100.001 50.1267 100.301 50.2033 100.601 50.29C100.908 50.3767 101.185 50.49 101.431 50.63C101.685 50.77 101.888 50.9567 102.041 51.19C102.195 51.4233 102.271 51.7233 102.271 52.09C102.271 52.4433 102.175 52.7733 101.981 53.08C101.788 53.38 101.488 53.6233 101.081 53.81C100.681 53.99 100.175 54.08 99.5615 54.08ZM111.825 54V47.87H109.425V47H115.215V47.87H112.815V54H111.825ZM126.166 54.08C125.633 54.08 125.136 53.99 124.676 53.81C124.223 53.63 123.83 53.38 123.496 53.06C123.163 52.7333 122.903 52.3533 122.716 51.92C122.53 51.4867 122.436 51.0133 122.436 50.5C122.436 49.9867 122.53 49.5133 122.716 49.08C122.903 48.6467 123.163 48.27 123.496 47.95C123.83 47.6233 124.223 47.37 124.676 47.19C125.13 47.01 125.626 46.92 126.166 46.92C126.7 46.92 127.19 47.01 127.636 47.19C128.09 47.3633 128.483 47.6133 128.816 47.94C129.156 48.26 129.416 48.6367 129.596 49.07C129.783 49.5033 129.876 49.98 129.876 50.5C129.876 51.02 129.783 51.4967 129.596 51.93C129.416 52.3633 129.156 52.7433 128.816 53.07C128.483 53.39 128.09 53.64 127.636 53.82C127.19 53.9933 126.7 54.08 126.166 54.08ZM126.166 53.19C126.553 53.19 126.91 53.1233 127.236 52.99C127.57 52.8567 127.856 52.67 128.096 52.43C128.343 52.1833 128.533 51.8967 128.666 51.57C128.806 51.2433 128.876 50.8867 128.876 50.5C128.876 50.1133 128.806 49.7567 128.666 49.43C128.533 49.1033 128.343 48.82 128.096 48.58C127.856 48.3333 127.57 48.1433 127.236 48.01C126.91 47.8767 126.553 47.81 126.166 47.81C125.773 47.81 125.41 47.8767 125.076 48.01C124.75 48.1433 124.463 48.3333 124.216 48.58C123.97 48.82 123.776 49.1033 123.636 49.43C123.503 49.7567 123.436 50.1133 123.436 50.5C123.436 50.8867 123.503 51.2433 123.636 51.57C123.776 51.8967 123.97 52.1833 124.216 52.43C124.463 52.67 124.75 52.8567 125.076 52.99C125.41 53.1233 125.773 53.19 126.166 53.19ZM138.205 54V47H140.935C141.548 47 142.071 47.0967 142.505 47.29C142.938 47.4833 143.271 47.7633 143.505 48.13C143.738 48.4967 143.855 48.9333 143.855 49.44C143.855 49.9467 143.738 50.3833 143.505 50.75C143.271 51.11 142.938 51.39 142.505 51.59C142.071 51.7833 141.548 51.88 140.935 51.88H138.755L139.205 51.41V54H138.205ZM139.205 51.51L138.755 51.01H140.905C141.545 51.01 142.028 50.8733 142.355 50.6C142.688 50.3267 142.855 49.94 142.855 49.44C142.855 48.94 142.688 48.5533 142.355 48.28C142.028 48.0067 141.545 47.87 140.905 47.87H138.755L139.205 47.37V51.51ZM163.747 54.08C163.214 54.08 162.704 54 162.217 53.84C161.73 53.6733 161.347 53.46 161.067 53.2L161.437 52.42C161.704 52.6533 162.044 52.8467 162.457 53C162.87 53.1533 163.3 53.23 163.747 53.23C164.154 53.23 164.484 53.1833 164.737 53.09C164.99 52.9967 165.177 52.87 165.297 52.71C165.417 52.5433 165.477 52.3567 165.477 52.15C165.477 51.91 165.397 51.7167 165.237 51.57C165.084 51.4233 164.88 51.3067 164.627 51.22C164.38 51.1267 164.107 51.0467 163.807 50.98C163.507 50.9133 163.204 50.8367 162.897 50.75C162.597 50.6567 162.32 50.54 162.067 50.4C161.82 50.26 161.62 50.0733 161.467 49.84C161.314 49.6 161.237 49.2933 161.237 48.92C161.237 48.56 161.33 48.23 161.517 47.93C161.71 47.6233 162.004 47.38 162.397 47.2C162.797 47.0133 163.304 46.92 163.917 46.92C164.324 46.92 164.727 46.9733 165.127 47.08C165.527 47.1867 165.874 47.34 166.167 47.54L165.837 48.34C165.537 48.14 165.22 47.9967 164.887 47.91C164.554 47.8167 164.23 47.77 163.917 47.77C163.524 47.77 163.2 47.82 162.947 47.92C162.694 48.02 162.507 48.1533 162.387 48.32C162.274 48.4867 162.217 48.6733 162.217 48.88C162.217 49.1267 162.294 49.3233 162.447 49.47C162.607 49.6167 162.81 49.7333 163.057 49.82C163.31 49.9067 163.587 49.9867 163.887 50.06C164.187 50.1267 164.487 50.2033 164.787 50.29C165.094 50.3767 165.37 50.49 165.617 50.63C165.87 50.77 166.074 50.9567 166.227 51.19C166.38 51.4233 166.457 51.7233 166.457 52.09C166.457 52.4433 166.36 52.7733 166.167 53.08C165.974 53.38 165.674 53.6233 165.267 53.81C164.867 53.99 164.36 54.08 163.747 54.08ZM175.628 50.02H179.228V50.87H175.628V50.02ZM175.718 53.13H179.798V54H174.718V47H179.658V47.87H175.718V53.13ZM188.217 54V47H190.947C191.561 47 192.084 47.0967 192.517 47.29C192.951 47.4833 193.284 47.7633 193.517 48.13C193.751 48.4967 193.867 48.9333 193.867 49.44C193.867 49.9467 193.751 50.3833 193.517 50.75C193.284 51.11 192.951 51.3867 192.517 51.58C192.084 51.7733 191.561 51.87 190.947 51.87H188.767L189.217 51.41V54H188.217ZM192.897 54L191.117 51.46H192.187L193.987 54H192.897ZM189.217 51.51L188.767 51.02H190.917C191.557 51.02 192.041 50.8833 192.367 50.61C192.701 50.33 192.867 49.94 192.867 49.44C192.867 48.94 192.701 48.5533 192.367 48.28C192.041 48.0067 191.557 47.87 190.917 47.87H188.767L189.217 47.37V51.51ZM204.303 54L201.223 47H202.303L205.133 53.46H204.513L207.363 47H208.363L205.293 54H204.303ZM216.055 54V47H217.055V54H216.055ZM229.081 54.08C228.548 54.08 228.055 53.9933 227.601 53.82C227.155 53.64 226.765 53.39 226.431 53.07C226.105 52.7433 225.848 52.3633 225.661 51.93C225.475 51.4967 225.381 51.02 225.381 50.5C225.381 49.98 225.475 49.5033 225.661 49.07C225.848 48.6367 226.108 48.26 226.441 47.94C226.775 47.6133 227.165 47.3633 227.611 47.19C228.065 47.01 228.558 46.92 229.091 46.92C229.631 46.92 230.128 47.0133 230.581 47.2C231.041 47.38 231.431 47.65 231.751 48.01L231.101 48.64C230.835 48.36 230.535 48.1533 230.201 48.02C229.868 47.88 229.511 47.81 229.131 47.81C228.738 47.81 228.371 47.8767 228.031 48.01C227.698 48.1433 227.408 48.33 227.161 48.57C226.915 48.81 226.721 49.0967 226.581 49.43C226.448 49.7567 226.381 50.1133 226.381 50.5C226.381 50.8867 226.448 51.2467 226.581 51.58C226.721 51.9067 226.915 52.19 227.161 52.43C227.408 52.67 227.698 52.8567 228.031 52.99C228.371 53.1233 228.738 53.19 229.131 53.19C229.511 53.19 229.868 53.1233 230.201 52.99C230.535 52.85 230.835 52.6367 231.101 52.35L231.751 52.98C231.431 53.34 231.041 53.6133 230.581 53.8C230.128 53.9867 229.628 54.08 229.081 54.08ZM240.888 50.02H244.488V50.87H240.888V50.02ZM240.978 53.13H245.058V54H239.978V47H244.918V47.87H240.978V53.13Z" fill="#32313A"/>
</svg>
