<svg width="77" height="77" viewBox="0 0 77 77" fill="none" xmlns="http://www.w3.org/2000/svg">
<g clip-path="url(#clip0_119_9319)">
<circle cx="23" cy="23" r="22.5" fill="#7553FF"/>
<g clip-path="url(#clip1_119_9319)">
<path d="M69.355 28.3667L45.7817 21.935C41.9 20.8815 37.7621 21.3581 34.2217 23.2667L23.8517 28.9333L8.75 31.7667C7.62772 31.7667 6.55099 32.2105 5.75477 33.0014C4.95855 33.7923 4.50748 34.8661 4.5 35.9883V44.4883C4.5 45.6155 4.94777 46.6965 5.7448 47.4935C6.54183 48.2906 7.62283 48.7383 8.75 48.7383H11.5833C11.8618 50.3816 12.7131 51.8733 13.9863 52.9489C15.2595 54.0245 16.8724 54.6146 18.5392 54.6146C20.2059 54.6146 21.8188 54.0245 23.092 52.9489C24.3652 51.8733 25.2165 50.3816 25.495 48.7383H51.25C51.5285 50.3816 52.3798 51.8733 53.653 52.9489C54.9262 54.0245 56.5391 54.6146 58.2058 54.6146C59.8726 54.6146 61.4855 54.0245 62.7587 52.9489C64.0319 51.8733 64.8832 50.3816 65.1617 48.7383H67.995C69.1222 48.7383 70.2032 48.2906 71.0002 47.4935C71.7972 46.6965 72.245 45.6155 72.245 44.4883V32.3333C72.2326 31.4545 71.948 30.6011 71.4304 29.8907C70.9129 29.1803 70.1878 28.6479 69.355 28.3667ZM55.5 27.545V28.905H53.5167L52.4117 26.6667L55.5 27.545ZM35.6667 25.7883C38.3924 24.3339 41.5512 23.9113 44.5633 24.5983H45.13H45.6117L48.8417 25.4767L50.4283 28.6783H30L35.6667 25.7883ZM18.6667 51.77C17.8261 51.77 17.0044 51.5207 16.3055 51.0538C15.6066 50.5868 15.0619 49.923 14.7402 49.1464C14.4185 48.3698 14.3343 47.5153 14.4983 46.6909C14.6623 45.8665 15.0671 45.1092 15.6615 44.5148C16.2558 43.9204 17.0131 43.5157 17.8375 43.3517C18.662 43.1877 19.5165 43.2718 20.2931 43.5935C21.0697 43.9152 21.7334 44.4599 22.2004 45.1588C22.6674 45.8577 22.9167 46.6794 22.9167 47.52C22.9167 48.6472 22.4689 49.7282 21.6719 50.5252C20.8748 51.3222 19.7938 51.77 18.6667 51.77ZM58.3333 51.77C57.4928 51.77 56.6711 51.5207 55.9722 51.0538C55.2733 50.5868 54.7285 49.923 54.4069 49.1464C54.0852 48.3698 54.001 47.5153 54.165 46.6909C54.329 45.8665 54.7338 45.1092 55.3281 44.5148C55.9225 43.9204 56.6798 43.5157 57.5042 43.3517C58.3286 43.1877 59.1832 43.2718 59.9597 43.5935C60.7363 43.9152 61.4001 44.4599 61.8671 45.1588C62.3341 45.8577 62.5833 46.6794 62.5833 47.52C62.5833 48.6472 62.1356 49.7282 61.3385 50.5252C60.5415 51.3222 59.4605 51.77 58.3333 51.77ZM69.6667 37.405H68.25C67.8743 37.405 67.5139 37.5543 67.2483 37.8199C66.9826 38.0856 66.8333 38.446 66.8333 38.8217C66.8333 39.1974 66.9826 39.5577 67.2483 39.8234C67.5139 40.0891 67.8743 40.2383 68.25 40.2383H69.6667V44.4883C69.6667 44.8641 69.5174 45.2244 69.2517 45.4901C68.9861 45.7558 68.6257 45.905 68.25 45.905H65.2183C64.8568 44.3539 63.981 42.9707 62.7335 41.9806C61.486 40.9904 59.9402 40.4515 58.3475 40.4515C56.7548 40.4515 55.209 40.9904 53.9615 41.9806C52.714 42.9707 51.8382 44.3539 51.4767 45.905H25.5517C25.1901 44.3539 24.3144 42.9707 23.0669 41.9806C21.8194 40.9904 20.2735 40.4515 18.6808 40.4515C17.0881 40.4515 15.5423 40.9904 14.2948 41.9806C13.0473 42.9707 12.1715 44.3539 11.81 45.905H8.75C8.37428 45.905 8.01394 45.7558 7.74827 45.4901C7.48259 45.2244 7.33333 44.8641 7.33333 44.4883V40.2383H8.75C9.12572 40.2383 9.48606 40.0891 9.75173 39.8234C10.0174 39.5577 10.1667 39.1974 10.1667 38.8217C10.1667 38.446 10.0174 38.0856 9.75173 37.8199C9.48606 37.5543 9.12572 37.405 8.75 37.405H7.33333V35.9883C7.34389 35.7822 7.39606 35.5803 7.48671 35.3948C7.57736 35.2093 7.7046 35.0441 7.86078 34.9091C8.01696 34.7741 8.19885 34.6721 8.3955 34.6092C8.59214 34.5464 8.79947 34.524 9.005 34.5433L24.3333 31.7383H56.9167C57.2924 31.7383 57.6527 31.5891 57.9184 31.3234C58.1841 31.0577 58.3333 30.6974 58.3333 30.3217V28.31L68.6183 31.1433C68.8918 31.2145 69.1378 31.3658 69.3246 31.5779C69.5114 31.79 69.6306 32.053 69.6667 32.3333V37.405ZM48.4167 40.2383H28.5833C28.2076 40.2383 27.8473 40.3876 27.5816 40.6533C27.3159 40.9189 27.1667 41.2793 27.1667 41.655C27.1667 42.0307 27.3159 42.3911 27.5816 42.6567C27.8473 42.9224 28.2076 43.0717 28.5833 43.0717H48.4167C48.7924 43.0717 49.1527 42.9224 49.4184 42.6567C49.6841 42.3911 49.8333 42.0307 49.8333 41.655C49.8333 41.2793 49.6841 40.9189 49.4184 40.6533C49.1527 40.3876 48.7924 40.2383 48.4167 40.2383Z" fill="black"/>
</g>
</g>
<defs>
<clipPath id="clip0_119_9319">
<rect width="76" height="76.3602" fill="white" transform="translate(0.5)"/>
</clipPath>
<clipPath id="clip1_119_9319">
<rect width="68" height="68" fill="white" transform="translate(4.5 4)"/>
</clipPath>
</defs>
</svg>
